HIERARCHY
ROOT root
{
	OFFSET	0	13.1	24.9
	CHANNELS 6  Xposition Yposition Zposition Xrotation Yrotation Zrotation
	JOINT spine_1
	{
		OFFSET	0	9.99999	0
		CHANNELS 3  Xrotation Yrotation Zrotation
		JOINT spine_2
		{
			OFFSET	0	112	-10
			CHANNELS 3  Xrotation Yrotation Zrotation
			JOINT spine_3
			{
				OFFSET	0	206.5	19.3
				CHANNELS 3  Xrotation Yrotation Zrotation
				JOINT spine_4
				{
					OFFSET	0	110.4	14.6
					CHANNELS 3  Xrotation Yrotation Zrotation
					JOINT neck_1
					{
						OFFSET	0	71.8	-50.3
						CHANNELS 3  Xrotation Yrotation Zrotation
						JOINT neck_2
						{
							OFFSET	0	86.2	-25.8
							CHANNELS 3  Xrotation Yrotation Zrotation
							JOINT head_ee
							{
								OFFSET	0	179.8	-8.7
								CHANNELS 3  Xrotation Yrotation Zrotation
								End Site
								{
									OFFSET	1	0	0
								}
							}
						}
					}
					JOINT left_clavicle
					{
						OFFSET	-43.2	22.4	-70.8
						CHANNELS 3  Xrotation Yrotation Zrotation
						JOINT left_shoulder
						{
							OFFSET	-93.9	-5.79999	48.7
							CHANNELS 3  Xrotation Yrotation Zrotation
							JOINT left_elbow
							{
								OFFSET	-291.4	-30.8	15.2
								CHANNELS 3  Xrotation Yrotation Zrotation
								JOINT left_lowarm_twist
								{
									OFFSET	-110.7	-3.89999	13.6
									CHANNELS 3  Xrotation Yrotation Zrotation
									JOINT left_hand
									{
										OFFSET	-110.7	-3.89999	13.6
										CHANNELS 3  Xrotation Yrotation Zrotation
										JOINT left_ee
										{
											OFFSET	-80.8	-5.10001	12.1
											CHANNELS 3  Xrotation Yrotation Zrotation
											End Site
											{
												OFFSET	1	0	0
											}
										}
									}
								}
							}
						}
					}
					JOINT right_clavicle
					{
						OFFSET	43.2	22.4	-70.8
						CHANNELS 3  Xrotation Yrotation Zrotation
						JOINT right_shoulder
						{
							OFFSET	93.9	-5.79999	48.7
							CHANNELS 3  Xrotation Yrotation Zrotation
							JOINT right_elbow
							{
								OFFSET	291.4	-30.8	15.2
								CHANNELS 3  Xrotation Yrotation Zrotation
								JOINT right_lowarm_twist
								{
									OFFSET	110.7	-3.89999	13.6
									CHANNELS 3  Xrotation Yrotation Zrotation
									JOINT right_hand
									{
										OFFSET	110.7	-3.89999	13.6
										CHANNELS 3  Xrotation Yrotation Zrotation
										JOINT right_ee
										{
											OFFSET	80.8	-5.10001	12.1
											CHANNELS 3  Xrotation Yrotation Zrotation
											End Site
											{
												OFFSET	1	0	0
											}
										}
									}
								}
							}
						}
					}
				}
			}
		}
	}
	JOINT left_hip
	{
		OFFSET	-82.8	-127.5	0.300001
		CHANNELS 3  Xrotation Yrotation Zrotation
		JOINT left_knee
		{
			OFFSET	-28.2	-396.7	2.2
			CHANNELS 3  Xrotation Yrotation Zrotation
			JOINT left_ankle
			{
				OFFSET	-11.7	-411.3	35.4
				CHANNELS 3  Xrotation Yrotation Zrotation
				JOINT left_toes
				{
					OFFSET	0	-60	-88.6
					CHANNELS 3  Xrotation Yrotation Zrotation
					JOINT left_foot_ee
					{
						OFFSET	-22.5	-16.5	-42.2
						CHANNELS 3  Xrotation Yrotation Zrotation
						End Site
						{
							OFFSET	1	0	0
						}
					}
				}
			}
		}
	}
	JOINT right_hip
	{
		OFFSET	82.8	-127.5	0.300001
		CHANNELS 3  Xrotation Yrotation Zrotation
		JOINT right_knee
		{
			OFFSET	28.2	-396.7	2.2
			CHANNELS 3  Xrotation Yrotation Zrotation
			JOINT right_ankle
			{
				OFFSET	11.7	-411.3	35.4
				CHANNELS 3  Xrotation Yrotation Zrotation
				JOINT right_toes
				{
					OFFSET	0	-60	-88.6
					CHANNELS 3  Xrotation Yrotation Zrotation
					JOINT right_foot_ee
					{
						OFFSET	22.5	-16.5	-42.2
						CHANNELS 3  Xrotation Yrotation Zrotation
						End Site
						{
							OFFSET	1	0	0
						}
					}
				}
			}
		}
	}
}
MOTION
Frames: 9
Frame Time: 0.02
1580.51 741.07 -1370.91 5.41582 62.3307 -3.66102 0.155551 -0.00769568 0.535566 0.15571 -0.041759 0.533991 0.155374 -0.151671 0.513699 0.155012 -0.0686392 0.531205 -0.829177 9.45621 -3.10293 -0.514612 19.4507 -2.25146 -0.0 0.0 -0.0 8.49018 10.5288 16.0301 -37.5449 -6.81859 53.6246 0.479649 -13.3661 0.056202 -12.0646 -0.577761 1.42741 0.273602 14.8153 7.77895 -0.0 0.0 -0.0 11.6335 7.80824 -23.4323 -7.01568 29.955 -53.7077 1.18469 30.4059 -0.321949 65.5492 2.29208 7.59529 0.392168 -0.23433 -2.71702 0.0 0.0 0.0 20.7601 -10.0873 -1.33265 -57.722 -1.9591 8.26971 29.3338 24.2487 -4.01252 15.7099 -0.0 -0.0 -0.0 0.0 -0.0 -2.0524 -1.20132 -6.92002 -6.6902 -0.21708 -1.00322 40.7515 -3.9532 4.92284 7.79211 -0.0 -0.0 0.0 0.0 0.0 
1561.37 733.119 -1374.87 5.81964 63.8807 -4.31484 0.0537232 0.000585102 0.608415 0.0539283 -0.0381304 0.60722 0.0536004 -0.16436 0.585795 0.0531286 -0.0697839 0.6044 -1.17912 9.15499 -4.03177 -0.842934 19.6749 -3.22421 -0.0 0.0 -0.0 8.23959 10.3208 15.5919 -37.8718 -6.68695 53.1853 0.455762 -12.7226 0.0508107 -11.2195 -0.527592 1.33162 0.56891 15.1076 9.74358 -0.0 0.0 -0.0 11.3841 7.17816 -22.8684 -5.84622 29.0084 -52.9165 1.34671 33.7063 -0.407976 65.9904 2.33527 7.63187 0.476072 1.44532 -2.58076 0.0 0.0 0.0 20.9546 -8.05046 -2.77242 -53.8516 -1.5739 7.81421 27.3117 22.3299 -3.73631 15.6547 -0.0 -0.0 -0.0 0.0 -0.0 -3.73949 -1.4384 -8.06284 -6.15995 -0.204168 -0.92287 40.1064 -2.05709 4.87316 9.70717 -0.0 -0.0 0.0 0.0 0.0 
1547.27 735.518 -1384.32 8.37468 64.1126 -5.18401 -0.198912 0.159613 0.405812 -0.19883 0.133467 0.415146 -0.197792 0.041736 0.434071 -0.198038 0.109765 0.422032 -1.38946 9.22903 -4.85404 -1.00896 20.4724 -4.06263 -0.0 0.0 -0.0 7.96604 10.0637 15.1144 -37.8955 -6.59406 52.9685 0.48226 -13.4362 0.0568073 -9.55386 -0.432888 1.14075 1.0896 13.7575 12.5651 -0.0 0.0 -0.0 11.3515 6.30376 -22.7775 -5.42617 28.0576 -52.9952 1.45655 35.8095 -0.470611 66.3699 2.37265 7.66306 0.540961 2.81386 -2.44552 0.0 0.0 0.0 21.8224 -10.799 -2.29142 -53.9363 -1.58199 7.82444 27.9417 22.8491 -3.8204 16.5558 -0.0 -0.0 -0.0 0.0 -0.0 -4.65938 0.356537 -8.31688 -8.81662 -0.26137 -1.3265 40.8735 -0.591075 4.94612 12.2662 -0.0 -0.0 0.0 0.0 0.0 
1527.47 730.758 -1387.45 9.5524 64.249 -5.75616 -0.318198 0.267149 0.277761 -0.318189 0.248933 0.294198 -0.316865 0.17966 0.340943 -0.316952 0.231251 0.30829 -1.31256 7.8854 -6.27294 -0.902468 19.1832 -5.75349 -0.0 0.0 -0.0 7.70457 9.85712 14.6542 -38.0351 -6.54656 52.943 0.504756 -14.0387 0.0621495 -7.52129 -0.324917 0.904269 1.79113 10.4338 15.989 -0.0 0.0 -0.0 11.058 5.80359 -22.1222 -5.29449 27.546 -52.32 1.55435 37.5929 -0.529066 67.1702 2.45215 7.72803 0.626988 4.32965 -2.3895 0.0 0.0 0.0 23.6755 -15.4766 -2.73281 -48.48 -1.09239 7.14175 24.1663 25.9437 -3.42319 14.7217 -0.0 -0.0 -0.0 0.0 -0.0 -5.34862 4.16908 -8.27388 -10.13 -0.28272 -1.52691 40.568 1.27224 4.9349 14.8772 -0.0 -0.0 0.0 0.0 0.0 
1512.56 725.289 -1391.04 8.98187 64.8789 -4.76361 -0.303581 0.32854 0.191841 -0.303616 0.315667 0.212359 -0.302426 0.262537 0.275348 -0.302404 0.302728 0.230429 -1.1818 6.93014 -7.27385 -0.741269 18.2676 -6.96249 -0.0 0.0 -0.0 7.5234 9.72657 14.3341 -38.0616 -6.45435 53.0874 0.521825 -14.4937 0.0663557 -6.01132 -0.250187 0.726226 2.28242 7.97016 18.4474 -0.0 0.0 -0.0 10.8771 5.45137 -21.7195 -4.99985 26.8694 -51.4464 1.6176 38.7026 -0.568134 67.7848 2.5138 7.77717 0.67423 5.41813 -2.25005 0.0 0.0 0.0 24.9879 -18.7641 -2.96214 -44.6531 -0.789014 6.63703 21.7393 27.8288 -3.14968 13.4742 -0.0 -0.0 -0.0 0.0 -0.0 -5.92656 7.15761 -8.1645 -11.0801 -0.295297 -1.67214 40.3549 2.5785 4.93018 16.7073 -0.0 -0.0 0.0 0.0 0.0 
1488.28 711.551 -1393.18 7.45923 65.6133 -3.73443 -0.0757994 0.280403 0.0987383 -0.0758358 0.273552 0.116381 -0.0752804 0.242757 0.171593 -0.0752218 0.26681 0.131101 -0.132219 4.21474 -7.24667 0.21053 13.4231 -7.38116 -0.0 0.0 -0.0 7.3619 10.2564 14.0162 -38.9973 -6.69605 53.4175 0.543007 -15.0558 0.0717577 -3.87139 -0.152388 0.47071 2.76777 4.65082 20.6273 -0.0 0.0 -0.0 11.0728 6.56657 -22.1716 -2.40141 27.0449 -51.2454 1.39062 34.56 -0.432617 67.7995 2.51529 7.77834 0.973336 7.26129 -3.49126 0.0 0.0 0.0 28.4532 -19.8225 -2.24864 -39.4995 -0.435234 5.9281 16.4419 28.9688 -2.4511 13.5904 -0.0 -0.0 -0.0 0.0 -0.0 -9.72086 10.615 -7.07966 -6.48967 -0.212284 -0.972819 40.041 2.13045 4.89849 18.2403 -0.0 -0.0 0.0 0.0 0.0 
1470.79 723.353 -1392.98 8.65343 65.2195 -5.24271 -0.404778 0.251467 0.122208 -0.404802 0.243181 0.137961 -0.40421 0.207437 0.187458 -0.404183 0.234439 0.152344 0.463001 2.51672 -6.88895 0.724106 10.1421 -7.22996 -0.0 0.0 -0.0 7.51621 10.8047 14.262 -38.6623 -7.21768 53.8322 0.576606 -15.9413 0.0807361 -2.05958 -0.0771057 0.251684 3.10398 2.24432 22.1168 -0.0 0.0 -0.0 11.013 5.9001 -22.0263 -0.541968 27.0638 -51.4116 1.2403 31.5657 -0.350582 67.437 2.47885 7.74944 1.18571 8.55661 -4.37667 0.0 0.0 0.0 31.8237 -20.4129 -1.42732 -34.0817 -0.133787 5.15238 12.833 29.7224 -1.94738 13.7972 -0.0 -0.0 -0.0 0.0 -0.0 -12.5749 13.3921 -6.5764 -3.24835 -0.120049 -0.483998 39.7748 1.81837 4.87236 19.2337 -0.0 -0.0 0.0 0.0 0.0 
1454.04 721.51 -1393.34 7.91129 65.7477 -4.63695 -0.600004 0.192388 0.147479 -0.60001 0.182614 0.159422 -0.599488 0.142989 0.195749 -0.5995 0.172109 0.17071 0.868548 1.3329 -6.62793 1.07821 7.85469 -7.0966 -0.0 0.0 -0.0 7.72401 11.0918 14.6146 -38.118 -7.71672 54.1294 0.610067 -16.8154 0.0901715 -0.769446 -0.0277458 0.0943454 3.34398 0.510173 23.1754 -0.0 0.0 -0.0 11.0407 5.41955 -22.0744 0.779331 27.0708 -51.66 1.1482 29.6296 -0.303695 67.1991 2.45503 7.73036 1.3408 9.46261 -5.03849 0.0 0.0 0.0 33.6342 -20.8996 -1.00128 -30.297 0.0325753 4.59557 10.2987 30.1565 -1.58023 14.0005 -0.0 -0.0 -0.0 0.0 -0.0 -14.3658 15.3723 -5.99776 -0.899369 -0.0359864 -0.133327 39.6433 1.61861 4.85901 19.9291 -0.0 -0.0 0.0 0.0 0.0 
1435.72 728.765 -1393.47 8.45517 66.321 -5.4356 -0.903886 -0.0378537 0.218202 -0.903861 -0.0516617 0.215351 -0.904045 -0.0989086 0.198146 -0.904094 -0.0663738 0.21128 0.211237 0.660527 -6.35231 0.380941 6.39291 -6.79657 -0.0 0.0 -0.0 7.96408 11.2466 15.0317 -37.2606 -8.40771 54.7499 0.618612 -17.0374 0.0926595 0.432362 0.0150334 -0.0531723 3.22489 0.355635 22.2492 -0.0 0.0 -0.0 10.8431 4.7792 -21.6275 -0.96516 26.3708 -51.3758 1.3635 34.0348 -0.417336 66.2487 2.36069 7.65313 1.51707 10.0328 -5.98734 0.0 0.0 0.0 34.0576 -21.2196 -0.765591 -25.6293 0.186511 3.89596 9.04561 28.8381 -1.38056 14.8795 -0.0 -0.0 -0.0 0.0 -0.0 -15.0622 18.3203 -5.95523 -0.167498 -0.00686102 -0.0247886 39.6679 2.49484 4.87028 20.0503 -0.0 -0.0 0.0 0.0 0.0 
